<?xml version="1.0" encoding="utf-8"?>
<svg xmlns="http://www.w3.org/2000/svg" version="1.1" viewBox="0 0 1400 950">
	<title>The titlepage for the Standard Ebooks edition of Short Fiction, by Leo Tolstoy. Translated by Louise Maude, Aylmer Maude, Nathan Haskell Dole, Constance Garnett, J. D. Duff, Leo Wiener, R. S. Townsend, Hagberg Wright, Benjamin Tucker, Everyman’s Library, Vladimir Chertkov, and Isabella Fyvie Mayo</title>
	<g aria-label="SHORT FICTION">
		<path d="M327.03,51.40c14.04,0.00,23.95,7.30,23.95,7.30l-7.11,14.04s-7.67-5.33-15.63-5.33c-5.99,0.00-9.17,2.71-9.17,6.92c0.00,4.30,7.30,7.39,16.09,11.13c8.61,3.65,18.06,10.95,18.06,21.05c0.00,18.43-14.04,24.89-29.10,24.89c-18.06,0.00-29.01-10.20-29.01-10.20l8.80-14.78s10.29,8.70,18.90,8.70c3.84,0.00,11.13-0.37,11.13-7.58c0.00-5.61-8.23-8.14-17.40-12.73c-9.26-4.58-14.69-11.79-14.69-19.84c0.00-14.41,12.73-23.58,25.17-23.58z"/>
		<path d="M384.05,99.03l0.00,30.97l-17.59,0.00l0.00-77.19l17.59,0.00l0.00,30.78l24.89,0.00l0.00-30.78l17.59,0.00l0.00,77.19l-17.59,0.00l0.00-30.97l-24.89,0.00z"/>
		<path d="M439.30,91.36c0.00-22.55,17.68-39.95,38.92-39.95c21.43,0.00,38.83,17.40,38.83,39.95s-16.65,40.05-38.83,40.05c-22.83,0.00-38.92-17.50-38.92-40.05z  M458.29,91.36c0.00,11.51,5.52,23.02,19.93,23.02c14.04,0.00,19.84-11.51,19.84-23.02s-6.18-23.02-19.84-23.02c-13.57,0.00-19.93,11.51-19.93,23.02z"/>
		<path d="M529.82,52.81l27.60,0.00c14.32,0.00,25.17,7.77,25.17,22.92c0.00,11.60-6.36,19.37-15.81,22.36l26.57,31.91l-22.36,0.00l-23.58-30.50l0.00,30.50l-17.59,0.00l0.00-77.19z  M547.41,87.05l2.06,0.00c6.64,0.00,14.60-0.47,14.60-10.11s-7.95-10.11-14.60-10.11l-2.06,0.00l0.00,20.21z"/>
		<path d="M593.20,68.25l0.00-15.44l54.27,0.00l0.00,15.44l-18.34,0.00l0.00,61.75l-17.59,0.00l0.00-61.75l-18.34,0.00z"/>
		<path d="M734.01,52.81l0.00,15.44l-27.04,0.00l0.00,15.35l24.98,0.00l0.00,15.44l-24.98,0.00l0.00,30.97l-17.59,0.00l0.00-77.19l44.63,0.00z"/>
		<path d="M765.02,52.81l0.00,77.19l-17.59,0.00l0.00-77.19l17.59,0.00z"/>
		<path d="M819.33,114.09c8.98,0.00,15.16-4.77,15.16-4.77l7.49,14.97s-8.61,7.11-25.36,7.11c-21.80,0.00-41.82-17.78-41.82-39.86c0.00-22.18,19.93-40.14,41.82-40.14c16.75,0.00,25.36,7.11,25.36,7.11l-7.49,14.97s-6.18-4.77-15.16-4.77c-17.68,0.00-25.45,12.35-25.45,22.64c0.00,10.39,7.77,22.74,25.45,22.74z"/>
		<path d="M848.85,68.25l0.00-15.44l54.27,0.00l0.00,15.44l-18.34,0.00l0.00,61.75l-17.59,0.00l0.00-61.75l-18.34,0.00z"/>
		<path d="M932.07,52.81l0.00,77.19l-17.59,0.00l0.00-77.19l17.59,0.00z"/>
		<path d="M944.84,91.36c0.00-22.55,17.68-39.95,38.92-39.95c21.43,0.00,38.83,17.40,38.83,39.95s-16.65,40.05-38.83,40.05c-22.83,0.00-38.92-17.50-38.92-40.05z  M963.83,91.36c0.00,11.51,5.52,23.02,19.93,23.02c14.04,0.00,19.84-11.51,19.84-23.02s-6.18-23.02-19.84-23.02c-13.57,0.00-19.93,11.51-19.93,23.02z"/>
		<path d="M1052.95,82.09l0.00,47.91l-17.59,0.00l0.00-77.19l17.59,0.00l30.69,47.91l0.19,0.00l0.00-47.91l17.59,0.00l0.00,77.19l-17.59,0.00l-30.69-47.91l-0.19,0.00z"/>
	</g>
	<g aria-label="LEO TOLSTOY">
		<path d="M444.89,232.11l0.00,46.32l19.93,0.00l0.00,11.58l-33.12,0.00l0.00-57.89l13.19,0.00z"/>
		<path d="M509.47,232.11l0.00,11.58l-19.93,0.00l0.00,11.51l19.09,0.00l0.00,11.58l-19.09,0.00l0.00,11.65l19.93,0.00l0.00,11.58l-33.12,0.00l0.00-57.89l33.12,0.00z"/>
		<path d="M519.46,261.02c0.00-16.91,13.26-29.96,29.19-29.96c16.07,0.00,29.12,13.05,29.12,29.96s-12.49,30.04-29.12,30.04c-17.12,0.00-29.19-13.12-29.19-30.04z  M533.70,261.02c0.00,8.63,4.14,17.26,14.95,17.26c10.53,0.00,14.88-8.63,14.88-17.26s-4.63-17.26-14.88-17.26c-10.18,0.00-14.95,8.63-14.95,17.26z"/>
		<path d="M605.74,243.68l0.00-11.58l40.70,0.00l0.00,11.58l-13.75,0.00l0.00,46.32l-13.19,0.00l0.00-46.32l-13.75,0.00z"/>
		<path d="M651.37,261.02c0.00-16.91,13.26-29.96,29.19-29.96c16.07,0.00,29.12,13.05,29.12,29.96s-12.49,30.04-29.12,30.04c-17.12,0.00-29.19-13.12-29.19-30.04z  M665.61,261.02c0.00,8.63,4.14,17.26,14.95,17.26c10.53,0.00,14.88-8.63,14.88-17.26s-4.63-17.26-14.88-17.26c-10.18,0.00-14.95,8.63-14.95,17.26z"/>
		<path d="M733.70,232.11l0.00,46.32l19.93,0.00l0.00,11.58l-33.12,0.00l0.00-57.89l13.19,0.00z"/>
		<path d="M786.49,231.05c10.53,0.00,17.96,5.47,17.96,5.47l-5.33,10.53s-5.75-4.00-11.72-4.00c-4.49,0.00-6.88,2.04-6.88,5.19c0.00,3.23,5.47,5.54,12.07,8.35c6.46,2.74,13.54,8.21,13.54,15.79c0.00,13.82-10.53,18.67-21.82,18.67c-13.54,0.00-21.75-7.65-21.75-7.65l6.60-11.09s7.72,6.53,14.18,6.53c2.88,0.00,8.35-0.28,8.35-5.68c0.00-4.21-6.18-6.11-13.05-9.54c-6.95-3.44-11.02-8.84-11.02-14.88c0.00-10.81,9.54-17.68,18.88-17.68z"/>
		<path d="M810.30,243.68l0.00-11.58l40.70,0.00l0.00,11.58l-13.75,0.00l0.00,46.32l-13.19,0.00l0.00-46.32l-13.75,0.00z"/>
		<path d="M855.93,261.02c0.00-16.91,13.26-29.96,29.19-29.96c16.07,0.00,29.12,13.05,29.12,29.96s-12.49,30.04-29.12,30.04c-17.12,0.00-29.19-13.12-29.19-30.04z  M870.18,261.02c0.00,8.63,4.14,17.26,14.95,17.26c10.53,0.00,14.88-8.63,14.88-17.26s-4.63-17.26-14.88-17.26c-10.18,0.00-14.95,8.63-14.95,17.26z"/>
		<path d="M918.75,232.11l15.86,0.00l12.07,18.53l12.07-18.53l15.86,0.00l-21.33,31.93l0.00,25.96l-13.19,0.00l0.00-25.96z"/>
	</g>
	<g aria-label="translated by">
		<path d="M594.73,463.42c0.00-0.85,1.62-0.81,3.49-2.76c1.70-1.79,1.79-2.34,2.47-2.34c0.21,0.00,0.43,0.13,0.43,0.51c0.00,0.55-0.77,2.55-0.77,3.19c0.00,0.26,0.09,0.30,1.49,0.30c1.66,0.00,2.00-0.04,2.47-0.04c0.89,0.00,1.11,0.30,1.11,0.81c0.00,0.98-0.26,1.23-1.02,1.23c-0.68,0.00-2.51-0.21-3.44-0.21c-1.23,0.00-1.11,0.77-1.36,2.51c-0.38,2.64-1.36,8.16-1.36,8.84c0.00,2.25,1.57,2.34,1.74,2.34c2.34,0.00,3.32-1.87,4.00-1.87c0.13,0.00,0.47,0.00,0.47,0.60c0.00,1.11-3.61,4.00-6.25,4.00c-1.15,0.00-2.72-0.68-2.72-4.00c0.00-3.91,1.79-10.80,1.79-11.94c0.00-0.89-2.51,0.04-2.51-1.15z"/>
		<path d="M606.84,467.42c0.00-4.85,3.61-5.87,4.00-5.87c0.89,0.00,1.32,0.81,1.57,1.49c1.06,2.76,1.11,2.81,1.19,2.81c0.30,0.00,2.42-4.38,5.57-4.38c1.11,0.00,1.57,0.72,1.57,1.32c0.00,0.55-0.34,1.11-0.47,1.57c-0.09,0.30-0.17,1.62-0.94,1.62c-0.94,0.00-0.77-1.79-2.30-1.79c-1.91,0.00-2.98,5.57-3.19,7.35l-0.21,1.40c-0.94,7.23-0.85,7.23-2.38,7.23l-0.21,0.00c-0.43,0.00-1.28-0.09-1.28-1.11c0.00-1.70,1.83-7.95,1.83-11.14c0.00-2.13-0.68-2.89-1.45-2.89c-1.74,0.00-2.08,2.55-2.34,2.85c-0.13,0.13-0.26,0.26-0.47,0.26c-0.17,0.00-0.51-0.13-0.51-0.72z"/>
		<path d="M620.45,475.15c0.00-2.38,1.06-4.80,2.38-6.93c1.53-2.42,3.49-4.46,5.74-5.53c1.15-0.55,2.00-0.77,3.10-0.77c1.32,0.00,2.21,0.47,3.61,0.47c0.85,0.00,1.36-2.08,2.21-2.08c0.26,0.00,0.47,0.17,0.47,0.64c0.00,0.68-0.55,1.70-0.85,2.93c-0.38,1.57-0.64,3.53-0.98,5.44c-0.34,1.87-0.77,3.83-0.77,5.44c0.00,1.11,0.64,2.51,1.45,2.51c1.40,0.00,2.30-2.76,3.10-2.76c0.34,0.00,0.38,0.30,0.38,0.47c0.00,0.43-0.21,1.06-0.77,1.83c-1.06,1.53-2.98,3.49-4.12,3.49c-2.72,0.00-2.34-4.76-2.64-4.76c-0.21,0.00-3.74,5.10-7.78,5.10s-4.55-2.72-4.55-5.48z  M623.42,474.90c0.00,2.13,1.53,3.40,3.32,3.40c3.06,0.00,5.06-3.06,5.44-3.83c1.02-2.04,2.17-9.86,2.17-9.99c0.00-1.19-1.91-1.49-2.81-1.49c-1.74,0.00-4.00,1.28-5.27,3.44c-1.23,2.04-2.25,3.95-2.64,6.16c-0.13,0.77-0.21,1.53-0.21,2.30z"/>
		<path d="M641.70,466.35c0.00-1.66,2.55-4.85,4.17-4.85c2.47,0.00,1.57,4.46,1.96,4.46c0.26,0.00,0.55-0.94,2.13-2.13c1.15-0.89,3.40-2.42,5.19-2.42c2.98,0.00,3.57,2.64,3.57,5.31c0.00,2.98-0.72,7.48-0.72,8.93c0.00,1.19,0.34,1.53,0.81,1.53c0.72,0.00,1.70-0.94,1.70-0.94c0.51-0.64,0.68-1.15,1.32-1.15c0.30,0.00,0.38,0.26,0.38,0.51c0.00,1.66-3.74,4.63-5.61,4.63c-0.85,0.00-1.57-1.19-1.57-2.68c0.00-3.23,0.89-8.93,0.89-10.50c0.00-0.68-0.21-3.49-2.98-3.49c-0.98,0.00-1.79,0.47-2.76,1.87c-1.83,2.59-1.32,2.21-2.34,7.69c-1.06,5.74-0.77,5.23-0.85,5.82c-0.13,0.94-0.47,1.11-1.57,1.11c-1.15,0.00-1.49-0.09-1.49-1.32c0.00-1.79,1.87-8.37,1.87-11.65c0.00-1.49-0.55-2.34-0.98-2.34c-1.32,0.00-1.79,2.38-2.72,2.38c-0.30,0.00-0.38-0.34-0.38-0.81z"/>
		<path d="M663.68,477.70c0.00-1.32,0.85-1.53,1.36-1.53c2.17,0.00,1.45,2.93,4.04,2.93c3.10,0.00,3.40-2.21,3.40-2.72c0.00-2.00-1.40-3.23-2.93-4.76c-1.70-1.74-3.32-2.85-3.32-5.40c0.00-2.85,2.47-4.80,5.78-4.80c2.30,0.00,3.95,0.55,3.95,2.21c0.00,1.32-1.40,1.45-1.62,1.45c-1.53,0.00-1.70-2.38-3.36-2.38c-1.62,0.00-2.25,0.98-2.25,2.25c0.00,1.62,2.34,3.36,3.36,4.46c1.32,1.49,2.93,2.68,2.93,5.53c0.00,1.53-1.19,5.57-6.63,5.57c-1.66,0.00-4.72-0.55-4.72-2.81z"/>
		<path d="M678.72,476.34c0.00-2.42,1.11-7.44,1.19-8.12c0.38-2.68,0.60-5.70,1.02-8.42c0.72-4.59,1.36-8.42,1.36-8.93s-0.43-0.85-1.06-0.85s-0.72,0.04-1.23,0.04c-0.85,0.00-1.23-0.13-1.23-0.60c0.00-0.21,0.09-0.55,0.64-0.60c3.10-0.21,4.04-0.64,5.14-0.64c0.68,0.00,0.89,0.26,0.89,0.68c0.00,0.60-0.30,1.15-0.43,1.96c-1.57,8.25-0.85,6.67-2.21,15.81c-0.72,5.02-1.23,7.69-1.23,9.14s0.13,1.66,0.68,1.66c2.34,0.00,2.76-3.02,3.87-3.02c0.30,0.00,0.51,0.26,0.51,0.68s-1.11,1.87-2.13,3.06c-1.11,1.28-2.89,2.13-3.70,2.13c-0.85,0.00-2.08,0.00-2.08-4.00z"/>
		<path d="M689.22,475.15c0.00-2.38,1.06-4.80,2.38-6.93c1.53-2.42,3.49-4.46,5.74-5.53c1.15-0.55,2.00-0.77,3.10-0.77c1.32,0.00,2.21,0.47,3.61,0.47c0.85,0.00,1.36-2.08,2.21-2.08c0.26,0.00,0.47,0.17,0.47,0.64c0.00,0.68-0.55,1.70-0.85,2.93c-0.38,1.57-0.64,3.53-0.98,5.44c-0.34,1.87-0.77,3.83-0.77,5.44c0.00,1.11,0.64,2.51,1.45,2.51c1.40,0.00,2.30-2.76,3.10-2.76c0.34,0.00,0.38,0.30,0.38,0.47c0.00,0.43-0.21,1.06-0.77,1.83c-1.06,1.53-2.98,3.49-4.12,3.49c-2.72,0.00-2.34-4.76-2.64-4.76c-0.21,0.00-3.74,5.10-7.78,5.10s-4.55-2.72-4.55-5.48z  M692.20,474.90c0.00,2.13,1.53,3.40,3.32,3.40c3.06,0.00,5.06-3.06,5.44-3.83c1.02-2.04,2.17-9.86,2.17-9.99c0.00-1.19-1.91-1.49-2.81-1.49c-1.74,0.00-4.00,1.28-5.27,3.44c-1.23,2.04-2.25,3.95-2.64,6.16c-0.13,0.77-0.21,1.53-0.21,2.30z"/>
		<path d="M711.12,463.42c0.00-0.85,1.62-0.81,3.49-2.76c1.70-1.79,1.79-2.34,2.47-2.34c0.21,0.00,0.43,0.13,0.43,0.51c0.00,0.55-0.77,2.55-0.77,3.19c0.00,0.26,0.09,0.30,1.49,0.30c1.66,0.00,2.00-0.04,2.47-0.04c0.89,0.00,1.11,0.30,1.11,0.81c0.00,0.98-0.26,1.23-1.02,1.23c-0.68,0.00-2.51-0.21-3.44-0.21c-1.23,0.00-1.11,0.77-1.36,2.51c-0.38,2.64-1.36,8.16-1.36,8.84c0.00,2.25,1.57,2.34,1.74,2.34c2.34,0.00,3.32-1.87,4.00-1.87c0.13,0.00,0.47,0.00,0.47,0.60c0.00,1.11-3.61,4.00-6.25,4.00c-1.15,0.00-2.72-0.68-2.72-4.00c0.00-3.91,1.79-10.80,1.79-11.94c0.00-0.89-2.51,0.04-2.51-1.15z"/>
		<path d="M723.36,473.75c0.00-3.66,1.87-7.31,4.80-10.03c1.57-1.49,3.53-2.25,5.91-2.25c2.00,0.00,3.70,1.28,3.70,3.15c0.00,3.06-3.32,4.80-4.12,5.14c-0.38,0.17-2.68,1.11-6.67,1.15c-0.60,0.00-0.72,0.64-0.72,1.74c0.00,3.19,1.91,5.31,6.12,5.31c2.42,0.00,4.12-1.83,4.59-1.83c0.34,0.00,0.51,0.17,0.51,0.43c0.00,0.98-3.70,3.95-7.40,3.95c-5.40,0.00-6.72-2.98-6.72-6.76z  M726.84,469.33c0.00,0.30,0.09,0.85,0.38,0.85c4.12,0.00,7.61-2.76,7.61-5.44c0.00-1.62-1.53-2.00-2.25-2.00c-1.06,0.00-2.38,0.85-3.49,2.00c-1.28,1.32-2.25,4.04-2.25,4.59z"/>
		<path d="M739.81,474.69c0.00-6.59,5.53-12.92,10.58-12.92c1.11,0.00,1.96,0.55,3.15,0.55c0.13,0.00,1.53-11.18,1.53-11.48c0.00-0.64-0.60-1.06-1.23-1.06c-0.47,0.00-1.45,0.04-1.49,0.04c-0.43,0.00-0.68-0.17-0.68-0.47c0.00-0.72,1.49-0.55,2.68-0.85c2.38-0.60,2.13-0.68,3.27-0.68c0.38,0.00,0.68,0.34,0.68,0.72c0.00,1.11-0.43,2.47-2.81,19.85c-0.47,3.23-0.89,5.91-0.89,7.18c0.00,0.94,0.13,1.83,1.11,1.83c1.87,0.00,2.85-2.64,3.53-2.64c0.34,0.00,0.47,0.21,0.47,0.38c0.00,0.89-2.68,5.19-5.44,5.19c-2.98,0.00-2.00-4.76-2.59-4.76c-0.38,0.00-2.55,4.76-6.76,4.76c-3.61,0.00-5.10-2.47-5.10-5.65z  M742.78,473.50c0.00,2.47,1.02,4.38,3.61,4.38c1.53,0.00,3.19-0.81,4.29-2.21c1.70-2.13,2.34-9.61,2.34-11.31c0.00-1.15-1.70-1.70-2.85-1.70c-3.91,0.00-7.40,6.38-7.40,10.84z"/>
		<path d="M771.05,476.98c0.00-2.72,0.98-7.14,1.57-10.58c0.77-4.42,1.28-8.54,1.91-11.69c0.38-1.83,0.64-3.32,0.64-4.34c0.00-0.21-0.21-0.51-1.06-0.51c-0.64,0.00-1.11,0.09-1.74,0.09c-0.47,0.00-0.81,0.00-0.81-0.60c0.00-0.85,1.19-0.81,3.15-1.06c1.66-0.21,2.42-0.47,2.68-0.47c0.47,0.00,0.81,0.30,0.81,0.77c0.00,0.77-2.72,13.43-2.72,16.49c0.00,0.30,0.13,0.64,0.21,0.64c0.60,0.00,2.59-3.95,7.48-3.95c3.19,0.00,4.68,2.64,4.68,5.40c0.00,5.78-5.02,13.39-11.60,13.39c-2.51,0.00-5.19-1.11-5.19-3.57z  M773.86,476.47c0.00,1.45,0.64,2.89,3.27,2.89c3.83,0.00,7.74-6.12,7.74-11.01c0.00-2.38-1.83-4.34-4.17-4.34c-1.02,0.00-3.78,0.43-5.14,4.12c-1.23,3.36-1.70,7.91-1.70,8.33z"/>
		<path d="M789.50,485.31c0.00-0.72,0.64-1.40,1.36-1.40c1.70,0.00,1.74,1.40,3.70,1.40c2.47,0.00,5.27-5.44,5.27-7.06c0.00-2.38-4.68-13.35-6.93-13.35c-2.47,0.00-1.57,3.19-2.85,3.19c-0.26,0.00-0.43-0.21-0.43-0.94c0.00-1.79,0.85-5.48,3.44-5.48c4.12,0.00,8.16,12.07,8.63,12.07c0.60,0.00,1.53-4.55,1.53-7.40c0.00-1.23-1.06-2.08-1.06-3.23c0.00-0.77,0.43-1.57,1.45-1.57c0.94,0.00,1.66,0.94,1.66,2.25c0.00,1.91-1.02,7.78-3.53,14.11c-2.00,5.06-4.72,9.90-8.71,9.90c-1.83,0.00-3.53-0.55-3.53-2.51z"/>
	</g>
	<g aria-label="LOUISE MAUDE, AYLMER MAUDE,">
		<path d="M247.44,501.40l0.00,30.88l13.29,0.00l0.00,7.72l-22.08,0.00l0.00-38.60l8.80,0.00z"/>
		<path d="M268.35,520.68c0.00-11.27,8.84-19.98,19.46-19.98c10.71,0.00,19.42,8.70,19.42,19.98s-8.33,20.02-19.42,20.02c-11.42,0.00-19.46-8.75-19.46-20.02z  M277.85,520.68c0.00,5.75,2.76,11.51,9.96,11.51c7.02,0.00,9.92-5.75,9.92-11.51s-3.09-11.51-9.92-11.51c-6.78,0.00-9.96,5.75-9.96,11.51z"/>
		<path d="M345.77,501.40l0.00,24.89c0.00,9.54-5.24,14.41-15.06,14.41s-15.06-4.87-15.06-14.41l0.00-24.89l8.80,0.00l0.00,22.32c0.00,6.46,1.96,8.33,6.27,8.33s6.27-1.87,6.27-8.33l0.00-22.32l8.80,0.00z"/>
		<path d="M364.71,501.40l0.00,38.60l-8.80,0.00l0.00-38.60l8.80,0.00z"/>
		<path d="M388.61,500.70c7.02,0.00,11.98,3.65,11.98,3.65l-3.56,7.02s-3.84-2.67-7.81-2.67c-2.99,0.00-4.58,1.36-4.58,3.46c0.00,2.15,3.65,3.70,8.05,5.57c4.30,1.82,9.03,5.47,9.03,10.53c0.00,9.22-7.02,12.44-14.55,12.44c-9.03,0.00-14.50-5.10-14.50-5.10l4.40-7.39s5.15,4.35,9.45,4.35c1.92,0.00,5.57-0.19,5.57-3.79c0.00-2.81-4.12-4.07-8.70-6.36c-4.63-2.29-7.35-5.89-7.35-9.92c0.00-7.20,6.36-11.79,12.58-11.79z"/>
		<path d="M432.91,501.40l0.00,7.72l-13.29,0.00l0.00,7.67l12.73,0.00l0.00,7.72l-12.73,0.00l0.00,7.77l13.29,0.00l0.00,7.72l-22.08,0.00l0.00-38.60l22.08,0.00z"/>
		<path d="M492.64,540.00l-1.82-22.88l-0.23,0.00l-7.91,22.64l-5.24,0.00l-7.91-22.64l-0.23,0.00l-1.82,22.88l-8.80,0.00l3.46-38.60l9.36,0.00l8.56,22.27l8.56-22.27l9.36,0.00l3.46,38.60l-8.80,0.00z"/>
		<path d="M529.60,501.40l15.58,38.60l-9.45,0.00l-2.85-7.72l-14.69,0.00l-2.85,7.72l-9.45,0.00l15.58-38.60l8.14,0.00z  M529.88,524.56l-4.30-11.23l-0.09,0.00l-4.30,11.23l8.70,0.00z"/>
		<path d="M581.33,501.40l0.00,24.89c0.00,9.54-5.24,14.41-15.06,14.41s-15.06-4.87-15.06-14.41l0.00-24.89l8.80,0.00l0.00,22.32c0.00,6.46,1.96,8.33,6.27,8.33s6.27-1.87,6.27-8.33l0.00-22.32l8.80,0.00z"/>
		<path d="M591.48,501.40l11.18,0.00c10.57,0.00,19.46,8.05,19.46,19.27c0.00,11.27-8.84,19.32-19.46,19.32l-11.18,0.00l0.00-38.60z  M600.27,532.14l1.36,0.00c6.50,0.00,10.95-4.96,10.99-11.42c0.00-6.46-4.44-11.46-10.99-11.46l-1.36,0.00l0.00,22.88z"/>
		<path d="M653.09,501.40l0.00,7.72l-13.29,0.00l0.00,7.67l12.73,0.00l0.00,7.72l-12.73,0.00l0.00,7.77l13.29,0.00l0.00,7.72l-22.08,0.00l0.00-38.60l22.08,0.00z"/>
		<path d="M668.47,529.99c2.99,0.00,5.38,2.39,5.38,5.38c0.00,5.66-4.02,10.25-7.86,13.43l-2.39-1.96s2.81-2.67,3.56-6.55c-2.29-0.56-4.02-2.43-4.02-4.91c0.00-2.99,2.39-5.38,5.33-5.38z"/>
		<path d="M721.84,501.40l15.58,38.60l-9.45,0.00l-2.85-7.72l-14.69,0.00l-2.85,7.72l-9.45,0.00l15.58-38.60l8.14,0.00z  M722.12,524.56l-4.30-11.23l-0.09,0.00l-4.30,11.23l8.70,0.00z"/>
		<path d="M735.50,501.40l10.57,0.00l8.05,12.35l8.05-12.35l10.57,0.00l-14.22,21.29l0.00,17.31l-8.80,0.00l0.00-17.31z"/>
		<path d="M787.94,501.40l0.00,30.88l13.29,0.00l0.00,7.72l-22.08,0.00l0.00-38.60l8.80,0.00z"/>
		<path d="M842.48,540.00l-1.82-22.88l-0.23,0.00l-7.91,22.64l-5.24,0.00l-7.91-22.64l-0.23,0.00l-1.82,22.88l-8.80,0.00l3.46-38.60l9.36,0.00l8.56,22.27l8.56-22.27l9.36,0.00l3.46,38.60l-8.80,0.00z"/>
		<path d="M881.91,501.40l0.00,7.72l-13.29,0.00l0.00,7.67l12.73,0.00l0.00,7.72l-12.73,0.00l0.00,7.77l13.29,0.00l0.00,7.72l-22.08,0.00l0.00-38.60l22.08,0.00z"/>
		<path d="M891.96,501.40l13.80,0.00c7.16,0.00,12.58,3.88,12.58,11.46c0.00,5.80-3.18,9.68-7.91,11.18l13.29,15.95l-11.18,0.00l-11.79-15.25l0.00,15.25l-8.80,0.00l0.00-38.60z  M900.76,518.53l1.03,0.00c3.32,0.00,7.30-0.23,7.30-5.05s-3.98-5.05-7.30-5.05l-1.03,0.00l0.00,10.11z"/>
		<path d="M980.14,540.00l-1.82-22.88l-0.23,0.00l-7.91,22.64l-5.24,0.00l-7.91-22.64l-0.23,0.00l-1.82,22.88l-8.80,0.00l3.46-38.60l9.36,0.00l8.56,22.27l8.56-22.27l9.36,0.00l3.46,38.60l-8.80,0.00z"/>
		<path d="M1017.09,501.40l15.58,38.60l-9.45,0.00l-2.85-7.72l-14.69,0.00l-2.85,7.72l-9.45,0.00l15.58-38.60l8.14,0.00z  M1017.37,524.56l-4.30-11.23l-0.09,0.00l-4.30,11.23l8.70,0.00z"/>
		<path d="M1068.83,501.40l0.00,24.89c0.00,9.54-5.24,14.41-15.06,14.41s-15.06-4.87-15.06-14.41l0.00-24.89l8.80,0.00l0.00,22.32c0.00,6.46,1.96,8.33,6.27,8.33s6.27-1.87,6.27-8.33l0.00-22.32l8.80,0.00z"/>
		<path d="M1078.98,501.40l11.18,0.00c10.57,0.00,19.46,8.05,19.46,19.27c0.00,11.27-8.84,19.32-19.46,19.32l-11.18,0.00l0.00-38.60z  M1087.77,532.14l1.36,0.00c6.50,0.00,10.95-4.96,10.99-11.42c0.00-6.46-4.44-11.46-10.99-11.46l-1.36,0.00l0.00,22.88z"/>
		<path d="M1140.58,501.40l0.00,7.72l-13.29,0.00l0.00,7.67l12.73,0.00l0.00,7.72l-12.73,0.00l0.00,7.77l13.29,0.00l0.00,7.72l-22.08,0.00l0.00-38.60l22.08,0.00z"/>
		<path d="M1155.97,529.99c2.99,0.00,5.38,2.39,5.38,5.38c0.00,5.66-4.02,10.25-7.86,13.43l-2.39-1.96s2.81-2.67,3.56-6.55c-2.29-0.56-4.02-2.43-4.02-4.91c0.00-2.99,2.39-5.38,5.33-5.38z"/>
	</g>
	<g aria-label="NATHAN HASKELL DOLE, CONSTANCE">
		<path d="M179.69,576.05l0.00,23.95l-8.80,0.00l0.00-38.60l8.80,0.00l15.35,23.95l0.09,0.00l0.00-23.95l8.80,0.00l0.00,38.60l-8.80,0.00l-15.35-23.95l-0.09,0.00z"/>
		<path d="M234.14,561.40l15.58,38.60l-9.45,0.00l-2.85-7.72l-14.69,0.00l-2.85,7.72l-9.45,0.00l15.58-38.60l8.14,0.00z  M234.42,584.56l-4.30-11.23l-0.09,0.00l-4.30,11.23l8.70,0.00z"/>
		<path d="M251.54,569.12l0.00-7.72l27.13,0.00l0.00,7.72l-9.17,0.00l0.00,30.88l-8.80,0.00l0.00-30.88l-9.17,0.00z"/>
		<path d="M295.65,584.51l0.00,15.49l-8.80,0.00l0.00-38.60l8.80,0.00l0.00,15.39l12.44,0.00l0.00-15.39l8.80,0.00l0.00,38.60l-8.80,0.00l0.00-15.49l-12.44,0.00z"/>
		<path d="M347.10,561.40l15.58,38.60l-9.45,0.00l-2.85-7.72l-14.69,0.00l-2.85,7.72l-9.45,0.00l15.58-38.60l8.14,0.00z  M347.38,584.56l-4.30-11.23l-0.09,0.00l-4.30,11.23l8.70,0.00z"/>
		<path d="M377.97,576.05l0.00,23.95l-8.80,0.00l0.00-38.60l8.80,0.00l15.35,23.95l0.09,0.00l0.00-23.95l8.80,0.00l0.00,38.60l-8.80,0.00l-15.35-23.95l-0.09,0.00z"/>
		<path d="M439.39,584.51l0.00,15.49l-8.80,0.00l0.00-38.60l8.80,0.00l0.00,15.39l12.44,0.00l0.00-15.39l8.80,0.00l0.00,38.60l-8.80,0.00l0.00-15.49l-12.44,0.00z"/>
		<path d="M490.85,561.40l15.58,38.60l-9.45,0.00l-2.85-7.72l-14.69,0.00l-2.85,7.72l-9.45,0.00l15.58-38.60l8.14,0.00z  M491.13,584.56l-4.30-11.23l-0.09,0.00l-4.30,11.23l8.70,0.00z"/>
		<path d="M526.21,560.70c7.02,0.00,11.98,3.65,11.98,3.65l-3.56,7.02s-3.84-2.67-7.81-2.67c-2.99,0.00-4.58,1.36-4.58,3.46c0.00,2.15,3.65,3.70,8.05,5.57c4.30,1.82,9.03,5.47,9.03,10.53c0.00,9.22-7.02,12.44-14.55,12.44c-9.03,0.00-14.50-5.10-14.50-5.10l4.40-7.39s5.15,4.35,9.45,4.35c1.92,0.00,5.57-0.19,5.57-3.79c0.00-2.81-4.12-4.07-8.70-6.36c-4.63-2.29-7.35-5.89-7.35-9.92c0.00-7.20,6.36-11.79,12.58-11.79z"/>
		<path d="M583.56,600.00l-12.12,0.00l-14.22-16.37l0.00,16.37l-8.80,0.00l0.00-38.60l8.80,0.00l0.00,15.77l13.24-15.77l10.67,0.00l-15.53,18.29z"/>
		<path d="M612.32,561.40l0.00,7.72l-13.29,0.00l0.00,7.67l12.73,0.00l0.00,7.72l-12.73,0.00l0.00,7.77l13.29,0.00l0.00,7.72l-22.08,0.00l0.00-38.60l22.08,0.00z"/>
		<path d="M631.17,561.40l0.00,30.88l13.29,0.00l0.00,7.72l-22.08,0.00l0.00-38.60l8.80,0.00z"/>
		<path d="M662.61,561.40l0.00,30.88l13.29,0.00l0.00,7.72l-22.08,0.00l0.00-38.60l8.80,0.00z"/>
		<path d="M703.01,561.40l11.18,0.00c10.57,0.00,19.46,8.05,19.46,19.27c0.00,11.27-8.84,19.32-19.46,19.32l-11.18,0.00l0.00-38.60z  M711.81,592.14l1.36,0.00c6.50,0.00,10.95-4.96,10.99-11.42c0.00-6.46-4.44-11.46-10.99-11.46l-1.36,0.00l0.00,22.88z"/>
		<path d="M740.81,580.68c0.00-11.27,8.84-19.98,19.46-19.98c10.71,0.00,19.42,8.70,19.42,19.98s-8.33,20.02-19.42,20.02c-11.42,0.00-19.46-8.75-19.46-20.02z  M750.31,580.68c0.00,5.75,2.76,11.51,9.96,11.51c7.02,0.00,9.92-5.75,9.92-11.51s-3.09-11.51-9.92-11.51c-6.78,0.00-9.96,5.75-9.96,11.51z"/>
		<path d="M797.37,561.40l0.00,30.88l13.29,0.00l0.00,7.72l-22.08,0.00l0.00-38.60l8.80,0.00z"/>
		<path d="M842.08,561.40l0.00,7.72l-13.29,0.00l0.00,7.67l12.73,0.00l0.00,7.72l-12.73,0.00l0.00,7.77l13.29,0.00l0.00,7.72l-22.08,0.00l0.00-38.60l22.08,0.00z"/>
		<path d="M857.47,589.99c2.99,0.00,5.38,2.39,5.38,5.38c0.00,5.66-4.02,10.25-7.86,13.43l-2.39-1.96s2.81-2.67,3.56-6.55c-2.29-0.56-4.02-2.43-4.02-4.91c0.00-2.99,2.39-5.38,5.33-5.38z"/>
		<path d="M910.28,592.05c4.49,0.00,7.58-2.39,7.58-2.39l3.74,7.49s-4.30,3.56-12.68,3.56c-10.90,0.00-20.91-8.89-20.91-19.93c0.00-11.09,9.96-20.07,20.91-20.07c8.37,0.00,12.68,3.56,12.68,3.56l-3.74,7.49s-3.09-2.39-7.58-2.39c-8.84,0.00-12.73,6.18-12.73,11.32c0.00,5.19,3.88,11.37,12.73,11.37z"/>
		<path d="M928.24,580.68c0.00-11.27,8.84-19.98,19.46-19.98c10.71,0.00,19.42,8.70,19.42,19.98s-8.33,20.02-19.42,20.02c-11.42,0.00-19.46-8.75-19.46-20.02z  M937.73,580.68c0.00,5.75,2.76,11.51,9.96,11.51c7.02,0.00,9.92-5.75,9.92-11.51s-3.09-11.51-9.92-11.51c-6.78,0.00-9.96,5.75-9.96,11.51z"/>
		<path d="M984.79,576.05l0.00,23.95l-8.80,0.00l0.00-38.60l8.80,0.00l15.35,23.95l0.09,0.00l0.00-23.95l8.80,0.00l0.00,38.60l-8.80,0.00l-15.35-23.95l-0.09,0.00z"/>
		<path d="M1032.93,560.70c7.02,0.00,11.98,3.65,11.98,3.65l-3.56,7.02s-3.84-2.67-7.81-2.67c-2.99,0.00-4.58,1.36-4.58,3.46c0.00,2.15,3.65,3.70,8.05,5.57c4.30,1.82,9.03,5.47,9.03,10.53c0.00,9.22-7.02,12.44-14.55,12.44c-9.03,0.00-14.50-5.10-14.50-5.10l4.40-7.39s5.15,4.35,9.45,4.35c1.92,0.00,5.57-0.19,5.57-3.79c0.00-2.81-4.12-4.07-8.70-6.36c-4.63-2.29-7.35-5.89-7.35-9.92c0.00-7.20,6.36-11.79,12.58-11.79z"/>
		<path d="M1050.46,569.12l0.00-7.72l27.13,0.00l0.00,7.72l-9.17,0.00l0.00,30.88l-8.80,0.00l0.00-30.88l-9.17,0.00z"/>
		<path d="M1103.14,561.40l15.58,38.60l-9.45,0.00l-2.85-7.72l-14.69,0.00l-2.85,7.72l-9.45,0.00l15.58-38.60l8.14,0.00z  M1103.42,584.56l-4.30-11.23l-0.09,0.00l-4.30,11.23l8.70,0.00z"/>
		<path d="M1134.01,576.05l0.00,23.95l-8.80,0.00l0.00-38.60l8.80,0.00l15.35,23.95l0.09,0.00l0.00-23.95l8.80,0.00l0.00,38.60l-8.80,0.00l-15.35-23.95l-0.09,0.00z"/>
		<path d="M1187.90,592.05c4.49,0.00,7.58-2.39,7.58-2.39l3.74,7.49s-4.30,3.56-12.68,3.56c-10.90,0.00-20.91-8.89-20.91-19.93c0.00-11.09,9.96-20.07,20.91-20.07c8.37,0.00,12.68,3.56,12.68,3.56l-3.74,7.49s-3.09-2.39-7.58-2.39c-8.84,0.00-12.73,6.18-12.73,11.32c0.00,5.19,3.88,11.37,12.73,11.37z"/>
		<path d="M1229.67,561.40l0.00,7.72l-13.29,0.00l0.00,7.67l12.73,0.00l0.00,7.72l-12.73,0.00l0.00,7.77l13.29,0.00l0.00,7.72l-22.08,0.00l0.00-38.60l22.08,0.00z"/>
	</g>
	<g aria-label="GARNETT, J. D. DUFF, LEO WIENER,">
		<path d="M242.03,638.39l0.00,8.37c-2.11,9.78-10.25,13.94-17.82,13.94c-10.39,0.00-18.81-8.94-18.81-19.98c0.00-11.09,7.95-20.02,18.81-20.02c6.78,0.00,11.51,2.53,14.88,6.60l-5.75,6.32c-2.25-3.60-5.19-4.96-8.61-4.96c-5.43,0.00-9.82,5.38-9.82,12.07c0.00,6.55,4.40,11.88,9.82,11.88c4.21,0.00,8.37-2.71,8.37-7.44l-8.89,0.00l0.00-6.78l17.82,0.00z"/>
		<path d="M270.52,621.40l15.58,38.60l-9.45,0.00l-2.85-7.72l-14.69,0.00l-2.85,7.72l-9.45,0.00l15.58-38.60l8.14,0.00z  M270.80,644.56l-4.30-11.23l-0.09,0.00l-4.30,11.23l8.70,0.00z"/>
		<path d="M292.59,621.40l13.80,0.00c7.16,0.00,12.58,3.88,12.58,11.46c0.00,5.80-3.18,9.68-7.91,11.18l13.29,15.95l-11.18,0.00l-11.79-15.25l0.00,15.25l-8.80,0.00l0.00-38.60z  M301.39,638.53l1.03,0.00c3.32,0.00,7.30-0.23,7.30-5.05s-3.98-5.05-7.30-5.05l-1.03,0.00l0.00,10.11z"/>
		<path d="M339.89,636.05l0.00,23.95l-8.80,0.00l0.00-38.60l8.80,0.00l15.35,23.95l0.09,0.00l0.00-23.95l8.80,0.00l0.00,38.60l-8.80,0.00l-15.35-23.95l-0.09,0.00z"/>
		<path d="M396.82,621.40l0.00,7.72l-13.29,0.00l0.00,7.67l12.73,0.00l0.00,7.72l-12.73,0.00l0.00,7.77l13.29,0.00l0.00,7.72l-22.08,0.00l0.00-38.60l22.08,0.00z"/>
		<path d="M404.44,629.12l0.00-7.72l27.13,0.00l0.00,7.72l-9.17,0.00l0.00,30.88l-8.80,0.00l0.00-30.88l-9.17,0.00z"/>
		<path d="M437.97,629.12l0.00-7.72l27.13,0.00l0.00,7.72l-9.17,0.00l0.00,30.88l-8.80,0.00l0.00-30.88l-9.17,0.00z"/>
		<path d="M475.58,649.99c2.99,0.00,5.38,2.39,5.38,5.38c0.00,5.66-4.02,10.25-7.86,13.43l-2.39-1.96s2.81-2.67,3.56-6.55c-2.29-0.56-4.02-2.43-4.02-4.91c0.00-2.99,2.39-5.38,5.33-5.38z"/>
		<path d="M526.14,621.40l0.00,27.70c0.00,7.58-4.30,11.60-12.02,11.60c-5.52,0.00-9.03-3.70-9.03-3.70l2.81-7.35s2.76,2.62,5.01,2.62c2.53,0.00,4.44-1.54,4.44-5.43l0.00-25.45l8.80,0.00z"/>
		<path d="M541.62,649.99c2.99,0.00,5.38,2.39,5.38,5.38c0.00,2.95-2.39,5.33-5.38,5.33c-2.95,0.00-5.33-2.39-5.33-5.33c0.00-2.99,2.39-5.38,5.33-5.38z"/>
		<path d="M575.39,621.40l11.18,0.00c10.57,0.00,19.46,8.05,19.46,19.27c0.00,11.27-8.84,19.32-19.46,19.32l-11.18,0.00l0.00-38.60z  M584.18,652.14l1.36,0.00c6.50,0.00,10.95-4.96,10.99-11.42c0.00-6.46-4.44-11.46-10.99-11.46l-1.36,0.00l0.00,22.88z"/>
		<path d="M620.25,649.99c2.99,0.00,5.38,2.39,5.38,5.38c0.00,2.95-2.39,5.33-5.38,5.33c-2.95,0.00-5.33-2.39-5.33-5.33c0.00-2.99,2.39-5.38,5.33-5.38z"/>
		<path d="M654.01,621.40l11.18,0.00c10.57,0.00,19.46,8.05,19.46,19.27c0.00,11.27-8.84,19.32-19.46,19.32l-11.18,0.00l0.00-38.60z  M662.81,652.14l1.36,0.00c6.50,0.00,10.95-4.96,10.99-11.42c0.00-6.46-4.44-11.46-10.99-11.46l-1.36,0.00l0.00,22.88z"/>
		<path d="M723.20,621.40l0.00,24.89c0.00,9.54-5.24,14.41-15.06,14.41s-15.06-4.87-15.06-14.41l0.00-24.89l8.80,0.00l0.00,22.32c0.00,6.46,1.96,8.33,6.27,8.33s6.27-1.87,6.27-8.33l0.00-22.32l8.80,0.00z"/>
		<path d="M755.66,621.40l0.00,7.72l-13.52,0.00l0.00,7.67l12.49,0.00l0.00,7.72l-12.49,0.00l0.00,15.49l-8.80,0.00l0.00-38.60l22.32,0.00z"/>
		<path d="M787.19,621.40l0.00,7.72l-13.52,0.00l0.00,7.67l12.49,0.00l0.00,7.72l-12.49,0.00l0.00,15.49l-8.80,0.00l0.00-38.60l22.32,0.00z"/>
		<path d="M801.73,649.99c2.99,0.00,5.38,2.39,5.38,5.38c0.00,5.66-4.02,10.25-7.86,13.43l-2.39-1.96s2.81-2.67,3.56-6.55c-2.29-0.56-4.02-2.43-4.02-4.91c0.00-2.99,2.39-5.38,5.33-5.38z"/>
		<path d="M844.30,621.40l0.00,30.88l13.29,0.00l0.00,7.72l-22.08,0.00l0.00-38.60l8.80,0.00z"/>
		<path d="M889.01,621.40l0.00,7.72l-13.29,0.00l0.00,7.67l12.73,0.00l0.00,7.72l-12.73,0.00l0.00,7.77l13.29,0.00l0.00,7.72l-22.08,0.00l0.00-38.60l22.08,0.00z"/>
		<path d="M897.34,640.68c0.00-11.27,8.84-19.98,19.46-19.98c10.71,0.00,19.42,8.70,19.42,19.98s-8.33,20.02-19.42,20.02c-11.42,0.00-19.46-8.75-19.46-20.02z  M906.83,640.68c0.00,5.75,2.76,11.51,9.96,11.51c7.02,0.00,9.92-5.75,9.92-11.51s-3.09-11.51-9.92-11.51c-6.78,0.00-9.96,5.75-9.96,11.51z"/>
		<path d="M988.51,660.00l-6.18-21.66l-6.18,21.66l-9.78,0.00l-10.99-38.60l9.78,0.00l6.60,26.48l0.23,0.00l7.02-26.48l6.64,0.00l7.02,26.48l0.23,0.00l6.60-26.48l9.73,0.00l-10.99,38.60l-9.73,0.00z"/>
		<path d="M1025.13,621.40l0.00,38.60l-8.80,0.00l0.00-38.60l8.80,0.00z"/>
		<path d="M1057.83,621.40l0.00,7.72l-13.29,0.00l0.00,7.67l12.73,0.00l0.00,7.72l-12.73,0.00l0.00,7.77l13.29,0.00l0.00,7.72l-22.08,0.00l0.00-38.60l22.08,0.00z"/>
		<path d="M1076.68,636.05l0.00,23.95l-8.80,0.00l0.00-38.60l8.80,0.00l15.35,23.95l0.09,0.00l0.00-23.95l8.80,0.00l0.00,38.60l-8.80,0.00l-15.35-23.95l-0.09,0.00z"/>
		<path d="M1133.61,621.40l0.00,7.72l-13.29,0.00l0.00,7.67l12.73,0.00l0.00,7.72l-12.73,0.00l0.00,7.77l13.29,0.00l0.00,7.72l-22.08,0.00l0.00-38.60l22.08,0.00z"/>
		<path d="M1143.66,621.40l13.80,0.00c7.16,0.00,12.58,3.88,12.58,11.46c0.00,5.80-3.18,9.68-7.91,11.18l13.29,15.95l-11.18,0.00l-11.79-15.25l0.00,15.25l-8.80,0.00l0.00-38.60z  M1152.45,638.53l1.03,0.00c3.32,0.00,7.30-0.23,7.30-5.05s-3.98-5.05-7.30-5.05l-1.03,0.00l0.00,10.11z"/>
		<path d="M1187.49,649.99c2.99,0.00,5.38,2.39,5.38,5.38c0.00,5.66-4.02,10.25-7.86,13.43l-2.39-1.96s2.81-2.67,3.56-6.55c-2.29-0.56-4.02-2.43-4.02-4.91c0.00-2.99,2.39-5.38,5.33-5.38z"/>
	</g>
	<g aria-label="R. S. TOWNSEND, HAGBERG WRIGHT,">
		<path d="M177.28,681.40l13.80,0.00c7.16,0.00,12.58,3.88,12.58,11.46c0.00,5.80-3.18,9.68-7.91,11.18l13.29,15.95l-11.18,0.00l-11.79-15.25l0.00,15.25l-8.80,0.00l0.00-38.60z  M186.08,698.53l1.03,0.00c3.32,0.00,7.30-0.23,7.30-5.05s-3.98-5.05-7.30-5.05l-1.03,0.00l0.00,10.11z"/>
		<path d="M221.11,709.99c2.99,0.00,5.38,2.39,5.38,5.38c0.00,2.95-2.39,5.33-5.38,5.33c-2.95,0.00-5.33-2.39-5.33-5.33c0.00-2.99,2.39-5.38,5.33-5.38z"/>
		<path d="M268.16,680.70c7.02,0.00,11.98,3.65,11.98,3.65l-3.56,7.02s-3.84-2.67-7.81-2.67c-2.99,0.00-4.58,1.36-4.58,3.46c0.00,2.15,3.65,3.70,8.05,5.57c4.30,1.82,9.03,5.47,9.03,10.53c0.00,9.22-7.02,12.44-14.55,12.44c-9.03,0.00-14.50-5.10-14.50-5.10l4.40-7.39s5.15,4.35,9.45,4.35c1.92,0.00,5.57-0.19,5.57-3.79c0.00-2.81-4.12-4.07-8.70-6.36c-4.63-2.29-7.35-5.89-7.35-9.92c0.00-7.20,6.36-11.79,12.58-11.79z"/>
		<path d="M295.71,709.99c2.99,0.00,5.38,2.39,5.38,5.38c0.00,2.95-2.39,5.33-5.38,5.33c-2.95,0.00-5.33-2.39-5.33-5.33c0.00-2.99,2.39-5.38,5.33-5.38z"/>
		<path d="M324.80,689.12l0.00-7.72l27.13,0.00l0.00,7.72l-9.17,0.00l0.00,30.88l-8.80,0.00l0.00-30.88l-9.17,0.00z"/>
		<path d="M356.89,700.68c0.00-11.27,8.84-19.98,19.46-19.98c10.71,0.00,19.42,8.70,19.42,19.98s-8.33,20.02-19.42,20.02c-11.42,0.00-19.46-8.75-19.46-20.02z  M366.39,700.68c0.00,5.75,2.76,11.51,9.96,11.51c7.02,0.00,9.92-5.75,9.92-11.51s-3.09-11.51-9.92-11.51c-6.78,0.00-9.96,5.75-9.96,11.51z"/>
		<path d="M432.77,720.00l-6.18-21.66l-6.18,21.66l-9.78,0.00l-10.99-38.60l9.78,0.00l6.60,26.48l0.23,0.00l7.02-26.48l6.64,0.00l7.02,26.48l0.23,0.00l6.60-26.48l9.73,0.00l-10.99,38.60l-9.73,0.00z"/>
		<path d="M469.39,696.05l0.00,23.95l-8.80,0.00l0.00-38.60l8.80,0.00l15.35,23.95l0.09,0.00l0.00-23.95l8.80,0.00l0.00,38.60l-8.80,0.00l-15.35-23.95l-0.09,0.00z"/>
		<path d="M517.53,680.70c7.02,0.00,11.98,3.65,11.98,3.65l-3.56,7.02s-3.84-2.67-7.81-2.67c-2.99,0.00-4.58,1.36-4.58,3.46c0.00,2.15,3.65,3.70,8.05,5.57c4.30,1.82,9.03,5.47,9.03,10.53c0.00,9.22-7.02,12.44-14.55,12.44c-9.03,0.00-14.50-5.10-14.50-5.10l4.40-7.39s5.15,4.35,9.45,4.35c1.92,0.00,5.57-0.19,5.57-3.79c0.00-2.81-4.12-4.07-8.70-6.36c-4.63-2.29-7.35-5.89-7.35-9.92c0.00-7.20,6.36-11.79,12.58-11.79z"/>
		<path d="M561.82,681.40l0.00,7.72l-13.29,0.00l0.00,7.67l12.73,0.00l0.00,7.72l-12.73,0.00l0.00,7.77l13.29,0.00l0.00,7.72l-22.08,0.00l0.00-38.60l22.08,0.00z"/>
		<path d="M580.67,696.05l0.00,23.95l-8.80,0.00l0.00-38.60l8.80,0.00l15.35,23.95l0.09,0.00l0.00-23.95l8.80,0.00l0.00,38.60l-8.80,0.00l-15.35-23.95l-0.09,0.00z"/>
		<path d="M615.52,681.40l11.18,0.00c10.57,0.00,19.46,8.05,19.46,19.27c0.00,11.27-8.84,19.32-19.46,19.32l-11.18,0.00l0.00-38.60z  M624.32,712.14l1.36,0.00c6.50,0.00,10.95-4.96,10.99-11.42c0.00-6.46-4.44-11.46-10.99-11.46l-1.36,0.00l0.00,22.88z"/>
		<path d="M660.38,709.99c2.99,0.00,5.38,2.39,5.38,5.38c0.00,5.66-4.02,10.25-7.86,13.43l-2.39-1.96s2.81-2.67,3.56-6.55c-2.29-0.56-4.02-2.43-4.02-4.91c0.00-2.99,2.39-5.38,5.33-5.38z"/>
		<path d="M702.94,704.51l0.00,15.49l-8.80,0.00l0.00-38.60l8.80,0.00l0.00,15.39l12.44,0.00l0.00-15.39l8.80,0.00l0.00,38.60l-8.80,0.00l0.00-15.49l-12.44,0.00z"/>
		<path d="M754.40,681.40l15.58,38.60l-9.45,0.00l-2.85-7.72l-14.69,0.00l-2.85,7.72l-9.45,0.00l15.58-38.60l8.14,0.00z  M754.68,704.56l-4.30-11.23l-0.09,0.00l-4.30,11.23l8.70,0.00z"/>
		<path d="M811.37,698.39l0.00,8.37c-2.11,9.78-10.25,13.94-17.82,13.94c-10.39,0.00-18.81-8.94-18.81-19.98c0.00-11.09,7.95-20.02,18.81-20.02c6.78,0.00,11.51,2.53,14.88,6.60l-5.75,6.32c-2.25-3.60-5.19-4.96-8.61-4.96c-5.43,0.00-9.82,5.38-9.82,12.07c0.00,6.55,4.40,11.88,9.82,11.88c4.21,0.00,8.37-2.71,8.37-7.44l-8.89,0.00l0.00-6.78l17.82,0.00z"/>
		<path d="M820.26,681.40l11.98,0.00c6.64,0.00,11.88,2.48,11.88,9.82c0.00,3.56-1.54,6.60-4.82,8.28c4.82,0.84,8.23,3.51,8.23,9.73c0.00,6.36-4.63,10.76-12.63,10.76l-14.64,0.00l0.00-38.60z  M829.05,696.51l0.70,0.00c3.79,0.00,5.85-1.17,5.85-4.40c0.00-2.76-2.01-3.93-5.85-3.93l-0.70,0.00l0.00,8.33z  M829.05,713.22l2.76,0.00c4.16,0.00,6.46-1.26,6.46-4.30c0.00-3.56-2.29-4.82-6.46-4.82l-2.76,0.00l0.00,9.12z"/>
		<path d="M878.50,681.40l0.00,7.72l-13.29,0.00l0.00,7.67l12.73,0.00l0.00,7.72l-12.73,0.00l0.00,7.77l13.29,0.00l0.00,7.72l-22.08,0.00l0.00-38.60l22.08,0.00z"/>
		<path d="M888.55,681.40l13.80,0.00c7.16,0.00,12.58,3.88,12.58,11.46c0.00,5.80-3.18,9.68-7.91,11.18l13.29,15.95l-11.18,0.00l-11.79-15.25l0.00,15.25l-8.80,0.00l0.00-38.60z  M897.35,698.53l1.03,0.00c3.32,0.00,7.30-0.23,7.30-5.05s-3.98-5.05-7.30-5.05l-1.03,0.00l0.00,10.11z"/>
		<path d="M961.95,698.39l0.00,8.37c-2.11,9.78-10.25,13.94-17.82,13.94c-10.39,0.00-18.81-8.94-18.81-19.98c0.00-11.09,7.95-20.02,18.81-20.02c6.78,0.00,11.51,2.53,14.88,6.60l-5.75,6.32c-2.25-3.60-5.19-4.96-8.61-4.96c-5.43,0.00-9.82,5.38-9.82,12.07c0.00,6.55,4.40,11.88,9.82,11.88c4.21,0.00,8.37-2.71,8.37-7.44l-8.89,0.00l0.00-6.78l17.82,0.00z"/>
		<path d="M1014.24,720.00l-6.18-21.66l-6.18,21.66l-9.78,0.00l-10.99-38.60l9.78,0.00l6.60,26.48l0.23,0.00l7.02-26.48l6.64,0.00l7.02,26.48l0.23,0.00l6.60-26.48l9.73,0.00l-10.99,38.60l-9.73,0.00z"/>
		<path d="M1042.07,681.40l13.80,0.00c7.16,0.00,12.58,3.88,12.58,11.46c0.00,5.80-3.18,9.68-7.91,11.18l13.29,15.95l-11.18,0.00l-11.79-15.25l0.00,15.25l-8.80,0.00l0.00-38.60z  M1050.87,698.53l1.03,0.00c3.32,0.00,7.30-0.23,7.30-5.05s-3.98-5.05-7.30-5.05l-1.03,0.00l0.00,10.11z"/>
		<path d="M1089.36,681.40l0.00,38.60l-8.80,0.00l0.00-38.60l8.80,0.00z"/>
		<path d="M1134.88,698.39l0.00,8.37c-2.11,9.78-10.25,13.94-17.82,13.94c-10.39,0.00-18.81-8.94-18.81-19.98c0.00-11.09,7.95-20.02,18.81-20.02c6.78,0.00,11.51,2.53,14.88,6.60l-5.75,6.32c-2.25-3.60-5.19-4.96-8.61-4.96c-5.43,0.00-9.82,5.38-9.82,12.07c0.00,6.55,4.40,11.88,9.82,11.88c4.21,0.00,8.37-2.71,8.37-7.44l-8.89,0.00l0.00-6.78l17.82,0.00z"/>
		<path d="M1152.56,704.51l0.00,15.49l-8.80,0.00l0.00-38.60l8.80,0.00l0.00,15.39l12.44,0.00l0.00-15.39l8.80,0.00l0.00,38.60l-8.80,0.00l0.00-15.49l-12.44,0.00z"/>
		<path d="M1179.73,689.12l0.00-7.72l27.13,0.00l0.00,7.72l-9.17,0.00l0.00,30.88l-8.80,0.00l0.00-30.88l-9.17,0.00z"/>
		<path d="M1217.34,709.99c2.99,0.00,5.38,2.39,5.38,5.38c0.00,5.66-4.02,10.25-7.86,13.43l-2.39-1.96s2.81-2.67,3.56-6.55c-2.29-0.56-4.02-2.43-4.02-4.91c0.00-2.99,2.39-5.38,5.33-5.38z"/>
	</g>
	<g aria-label="BENJAMIN TUCKER, EVERYMAN’S">
		<path d="M234.98,741.40l11.98,0.00c6.64,0.00,11.88,2.48,11.88,9.82c0.00,3.56-1.54,6.60-4.82,8.28c4.82,0.84,8.23,3.51,8.23,9.73c0.00,6.36-4.63,10.76-12.63,10.76l-14.64,0.00l0.00-38.60z  M243.77,756.51l0.70,0.00c3.79,0.00,5.85-1.17,5.85-4.40c0.00-2.76-2.01-3.93-5.85-3.93l-0.70,0.00l0.00,8.33z  M243.77,773.22l2.76,0.00c4.16,0.00,6.46-1.26,6.46-4.30c0.00-3.56-2.29-4.82-6.46-4.82l-2.76,0.00l0.00,9.12z"/>
		<path d="M293.22,741.40l0.00,7.72l-13.29,0.00l0.00,7.67l12.73,0.00l0.00,7.72l-12.73,0.00l0.00,7.77l13.29,0.00l0.00,7.72l-22.08,0.00l0.00-38.60l22.08,0.00z"/>
		<path d="M312.06,756.05l0.00,23.95l-8.80,0.00l0.00-38.60l8.80,0.00l15.35,23.95l0.09,0.00l0.00-23.95l8.80,0.00l0.00,38.60l-8.80,0.00l-15.35-23.95l-0.09,0.00z"/>
		<path d="M363.71,741.40l0.00,27.70c0.00,7.58-4.30,11.60-12.02,11.60c-5.52,0.00-9.03-3.70-9.03-3.70l2.81-7.35s2.76,2.62,5.01,2.62c2.53,0.00,4.44-1.54,4.44-5.43l0.00-25.45l8.80,0.00z"/>
		<path d="M393.46,741.40l15.58,38.60l-9.45,0.00l-2.85-7.72l-14.69,0.00l-2.85,7.72l-9.45,0.00l15.58-38.60l8.14,0.00z  M393.74,764.56l-4.30-11.23l-0.09,0.00l-4.30,11.23l8.70,0.00z"/>
		<path d="M447.44,780.00l-1.82-22.88l-0.23,0.00l-7.91,22.64l-5.24,0.00l-7.91-22.64l-0.23,0.00l-1.82,22.88l-8.80,0.00l3.46-38.60l9.36,0.00l8.56,22.27l8.56-22.27l9.36,0.00l3.46,38.60l-8.80,0.00z"/>
		<path d="M473.58,741.40l0.00,38.60l-8.80,0.00l0.00-38.60l8.80,0.00z"/>
		<path d="M492.99,756.05l0.00,23.95l-8.80,0.00l0.00-38.60l8.80,0.00l15.35,23.95l0.09,0.00l0.00-23.95l8.80,0.00l0.00,38.60l-8.80,0.00l-15.35-23.95l-0.09,0.00z"/>
		<path d="M540.94,749.12l0.00-7.72l27.13,0.00l0.00,7.72l-9.17,0.00l0.00,30.88l-8.80,0.00l0.00-30.88l-9.17,0.00z"/>
		<path d="M605.91,741.40l0.00,24.89c0.00,9.54-5.24,14.41-15.06,14.41s-15.06-4.87-15.06-14.41l0.00-24.89l8.80,0.00l0.00,22.32c0.00,6.46,1.96,8.33,6.27,8.33s6.27-1.87,6.27-8.33l0.00-22.32l8.80,0.00z"/>
		<path d="M635.10,772.05c4.49,0.00,7.58-2.39,7.58-2.39l3.74,7.49s-4.30,3.56-12.68,3.56c-10.90,0.00-20.91-8.89-20.91-19.93c0.00-11.09,9.96-20.07,20.91-20.07c8.37,0.00,12.68,3.56,12.68,3.56l-3.74,7.49s-3.09-2.39-7.58-2.39c-8.84,0.00-12.73,6.18-12.73,11.32c0.00,5.19,3.88,11.37,12.73,11.37z"/>
		<path d="M689.92,780.00l-12.12,0.00l-14.22-16.37l0.00,16.37l-8.80,0.00l0.00-38.60l8.80,0.00l0.00,15.77l13.24-15.77l10.67,0.00l-15.53,18.29z"/>
		<path d="M718.69,741.40l0.00,7.72l-13.29,0.00l0.00,7.67l12.73,0.00l0.00,7.72l-12.73,0.00l0.00,7.77l13.29,0.00l0.00,7.72l-22.08,0.00l0.00-38.60l22.08,0.00z"/>
		<path d="M728.74,741.40l13.80,0.00c7.16,0.00,12.58,3.88,12.58,11.46c0.00,5.80-3.18,9.68-7.91,11.18l13.29,15.95l-11.18,0.00l-11.79-15.25l0.00,15.25l-8.80,0.00l0.00-38.60z  M737.54,758.53l1.03,0.00c3.32,0.00,7.30-0.23,7.30-5.05s-3.98-5.05-7.30-5.05l-1.03,0.00l0.00,10.11z"/>
		<path d="M772.57,769.99c2.99,0.00,5.38,2.39,5.38,5.38c0.00,5.66-4.02,10.25-7.86,13.43l-2.39-1.96s2.81-2.67,3.56-6.55c-2.29-0.56-4.02-2.43-4.02-4.91c0.00-2.99,2.39-5.38,5.33-5.38z"/>
		<path d="M828.42,741.40l0.00,7.72l-13.29,0.00l0.00,7.67l12.73,0.00l0.00,7.72l-12.73,0.00l0.00,7.77l13.29,0.00l0.00,7.72l-22.08,0.00l0.00-38.60l22.08,0.00z"/>
		<path d="M850.54,780.00l-16.19-38.60l9.92,0.00l9.73,25.36l9.73-25.36l9.92,0.00l-16.19,38.60l-6.92,0.00z"/>
		<path d="M902.23,741.40l0.00,7.72l-13.29,0.00l0.00,7.67l12.73,0.00l0.00,7.72l-12.73,0.00l0.00,7.77l13.29,0.00l0.00,7.72l-22.08,0.00l0.00-38.60l22.08,0.00z"/>
		<path d="M912.29,741.40l13.80,0.00c7.16,0.00,12.58,3.88,12.58,11.46c0.00,5.80-3.18,9.68-7.91,11.18l13.29,15.95l-11.18,0.00l-11.79-15.25l0.00,15.25l-8.80,0.00l0.00-38.60z  M921.08,758.53l1.03,0.00c3.32,0.00,7.30-0.23,7.30-5.05s-3.98-5.05-7.30-5.05l-1.03,0.00l0.00,10.11z"/>
		<path d="M942.36,741.40l10.57,0.00l8.05,12.35l8.05-12.35l10.57,0.00l-14.22,21.29l0.00,17.31l-8.80,0.00l0.00-17.31z"/>
		<path d="M1017.91,780.00l-1.82-22.88l-0.23,0.00l-7.91,22.64l-5.24,0.00l-7.91-22.64l-0.23,0.00l-1.82,22.88l-8.80,0.00l3.46-38.60l9.36,0.00l8.56,22.27l8.56-22.27l9.36,0.00l3.46,38.60l-8.80,0.00z"/>
		<path d="M1054.87,741.40l15.58,38.60l-9.45,0.00l-2.85-7.72l-14.69,0.00l-2.85,7.72l-9.45,0.00l15.58-38.60l8.14,0.00z  M1055.15,764.56l-4.30-11.23l-0.09,0.00l-4.30,11.23l8.70,0.00z"/>
		<path d="M1085.74,756.05l0.00,23.95l-8.80,0.00l0.00-38.60l8.80,0.00l15.35,23.95l0.09,0.00l0.00-23.95l8.80,0.00l0.00,38.60l-8.80,0.00l-15.35-23.95l-0.09,0.00z"/>
		<path d="M1125.40,740.70c2.71,0.00,4.91,2.20,4.91,4.91c0.00,5.10-3.70,9.26-7.11,12.12l-2.20-1.73s2.57-2.43,3.23-5.99c-2.06-0.51-3.65-2.20-3.65-4.40c0.00-2.71,2.15-4.91,4.82-4.91z"/>
		<path d="M1153.42,740.70c7.02,0.00,11.98,3.65,11.98,3.65l-3.56,7.02s-3.84-2.67-7.81-2.67c-2.99,0.00-4.58,1.36-4.58,3.46c0.00,2.15,3.65,3.70,8.05,5.57c4.30,1.82,9.03,5.47,9.03,10.53c0.00,9.22-7.02,12.44-14.55,12.44c-9.03,0.00-14.50-5.10-14.50-5.10l4.40-7.39s5.15,4.35,9.45,4.35c1.92,0.00,5.57-0.19,5.57-3.79c0.00-2.81-4.12-4.07-8.70-6.36c-4.63-2.29-7.35-5.89-7.35-9.92c0.00-7.20,6.36-11.79,12.58-11.79z"/>
	</g>
	<g aria-label="LIBRARY, VLADIMIR CHERTKOV,">
		<path d="M264.50,801.40l0.00,30.88l13.29,0.00l0.00,7.72l-22.08,0.00l0.00-38.60l8.80,0.00z"/>
		<path d="M295.93,801.40l0.00,38.60l-8.80,0.00l0.00-38.60l8.80,0.00z"/>
		<path d="M306.54,801.40l11.98,0.00c6.64,0.00,11.88,2.48,11.88,9.82c0.00,3.56-1.54,6.60-4.82,8.28c4.82,0.84,8.23,3.51,8.23,9.73c0.00,6.36-4.63,10.76-12.63,10.76l-14.64,0.00l0.00-38.60z  M315.34,816.51l0.70,0.00c3.79,0.00,5.85-1.17,5.85-4.40c0.00-2.76-2.01-3.93-5.85-3.93l-0.70,0.00l0.00,8.33z  M315.34,833.22l2.76,0.00c4.16,0.00,6.46-1.26,6.46-4.30c0.00-3.56-2.29-4.82-6.46-4.82l-2.76,0.00l0.00,9.12z"/>
		<path d="M342.70,801.40l13.80,0.00c7.16,0.00,12.58,3.88,12.58,11.46c0.00,5.80-3.18,9.68-7.91,11.18l13.29,15.95l-11.18,0.00l-11.79-15.25l0.00,15.25l-8.80,0.00l0.00-38.60z  M351.50,818.53l1.03,0.00c3.32,0.00,7.30-0.23,7.30-5.05s-3.98-5.05-7.30-5.05l-1.03,0.00l0.00,10.11z"/>
		<path d="M400.80,801.40l15.58,38.60l-9.45,0.00l-2.85-7.72l-14.69,0.00l-2.85,7.72l-9.45,0.00l15.58-38.60l8.14,0.00z  M401.08,824.56l-4.30-11.23l-0.09,0.00l-4.30,11.23l8.70,0.00z"/>
		<path d="M422.88,801.40l13.80,0.00c7.16,0.00,12.58,3.88,12.58,11.46c0.00,5.80-3.18,9.68-7.91,11.18l13.29,15.95l-11.18,0.00l-11.79-15.25l0.00,15.25l-8.80,0.00l0.00-38.60z  M431.67,818.53l1.03,0.00c3.32,0.00,7.30-0.23,7.30-5.05s-3.98-5.05-7.30-5.05l-1.03,0.00l0.00,10.11z"/>
		<path d="M452.95,801.40l10.57,0.00l8.05,12.35l8.05-12.35l10.57,0.00l-14.22,21.29l0.00,17.31l-8.80,0.00l0.00-17.31z"/>
		<path d="M498.42,829.99c2.99,0.00,5.38,2.39,5.38,5.38c0.00,5.66-4.02,10.25-7.86,13.43l-2.39-1.96s2.81-2.67,3.56-6.55c-2.29-0.56-4.02-2.43-4.02-4.91c0.00-2.99,2.39-5.38,5.33-5.38z"/>
		<path d="M540.28,840.00l-16.19-38.60l9.92,0.00l9.73,25.36l9.73-25.36l9.92,0.00l-16.19,38.60l-6.92,0.00z"/>
		<path d="M578.68,801.40l0.00,30.88l13.29,0.00l0.00,7.72l-22.08,0.00l0.00-38.60l8.80,0.00z"/>
		<path d="M621.63,801.40l15.58,38.60l-9.45,0.00l-2.85-7.72l-14.69,0.00l-2.85,7.72l-9.45,0.00l15.58-38.60l8.14,0.00z  M621.91,824.56l-4.30-11.23l-0.09,0.00l-4.30,11.23l8.70,0.00z"/>
		<path d="M643.70,801.40l11.18,0.00c10.57,0.00,19.46,8.05,19.46,19.27c0.00,11.27-8.84,19.32-19.46,19.32l-11.18,0.00l0.00-38.60z  M652.50,832.14l1.36,0.00c6.50,0.00,10.95-4.96,10.99-11.42c0.00-6.46-4.44-11.46-10.99-11.46l-1.36,0.00l0.00,22.88z"/>
		<path d="M692.02,801.40l0.00,38.60l-8.80,0.00l0.00-38.60l8.80,0.00z"/>
		<path d="M734.54,840.00l-1.82-22.88l-0.23,0.00l-7.91,22.64l-5.24,0.00l-7.91-22.64l-0.23,0.00l-1.82,22.88l-8.80,0.00l3.46-38.60l9.36,0.00l8.56,22.27l8.56-22.27l9.36,0.00l3.46,38.60l-8.80,0.00z"/>
		<path d="M760.69,801.40l0.00,38.60l-8.80,0.00l0.00-38.60l8.80,0.00z"/>
		<path d="M771.30,801.40l13.80,0.00c7.16,0.00,12.58,3.88,12.58,11.46c0.00,5.80-3.18,9.68-7.91,11.18l13.29,15.95l-11.18,0.00l-11.79-15.25l0.00,15.25l-8.80,0.00l0.00-38.60z  M780.10,818.53l1.03,0.00c3.32,0.00,7.30-0.23,7.30-5.05s-3.98-5.05-7.30-5.05l-1.03,0.00l0.00,10.11z"/>
		<path d="M846.61,832.05c4.49,0.00,7.58-2.39,7.58-2.39l3.74,7.49s-4.30,3.56-12.68,3.56c-10.90,0.00-20.91-8.89-20.91-19.93c0.00-11.09,9.96-20.07,20.91-20.07c8.37,0.00,12.68,3.56,12.68,3.56l-3.74,7.49s-3.09-2.39-7.58-2.39c-8.84,0.00-12.73,6.18-12.73,11.32c0.00,5.19,3.88,11.37,12.73,11.37z"/>
		<path d="M875.10,824.51l0.00,15.49l-8.80,0.00l0.00-38.60l8.80,0.00l0.00,15.39l12.44,0.00l0.00-15.39l8.80,0.00l0.00,38.60l-8.80,0.00l0.00-15.49l-12.44,0.00z"/>
		<path d="M929.04,801.40l0.00,7.72l-13.29,0.00l0.00,7.67l12.73,0.00l0.00,7.72l-12.73,0.00l0.00,7.77l13.29,0.00l0.00,7.72l-22.08,0.00l0.00-38.60l22.08,0.00z"/>
		<path d="M939.09,801.40l13.80,0.00c7.16,0.00,12.58,3.88,12.58,11.46c0.00,5.80-3.18,9.68-7.91,11.18l13.29,15.95l-11.18,0.00l-11.79-15.25l0.00,15.25l-8.80,0.00l0.00-38.60z  M947.88,818.53l1.03,0.00c3.32,0.00,7.30-0.23,7.30-5.05s-3.98-5.05-7.30-5.05l-1.03,0.00l0.00,10.11z"/>
		<path d="M973.28,809.12l0.00-7.72l27.13,0.00l0.00,7.72l-9.17,0.00l0.00,30.88l-8.80,0.00l0.00-30.88l-9.17,0.00z"/>
		<path d="M1043.73,840.00l-12.12,0.00l-14.22-16.37l0.00,16.37l-8.80,0.00l0.00-38.60l8.80,0.00l0.00,15.77l13.24-15.77l10.67,0.00l-15.53,18.29z"/>
		<path d="M1048.68,820.68c0.00-11.27,8.84-19.98,19.46-19.98c10.71,0.00,19.42,8.70,19.42,19.98s-8.33,20.02-19.42,20.02c-11.42,0.00-19.46-8.75-19.46-20.02z  M1058.18,820.68c0.00,5.75,2.76,11.51,9.96,11.51c7.02,0.00,9.92-5.75,9.92-11.51s-3.09-11.51-9.92-11.51c-6.78,0.00-9.96,5.75-9.96,11.51z"/>
		<path d="M1107.02,840.00l-16.19-38.60l9.92,0.00l9.73,25.36l9.73-25.36l9.92,0.00l-16.19,38.60l-6.92,0.00z"/>
		<path d="M1138.92,829.99c2.99,0.00,5.38,2.39,5.38,5.38c0.00,5.66-4.02,10.25-7.86,13.43l-2.39-1.96s2.81-2.67,3.56-6.55c-2.29-0.56-4.02-2.43-4.02-4.91c0.00-2.99,2.39-5.38,5.33-5.38z"/>
	</g>
	<g aria-label="AND ISABELLA FYVIE MAYO">
		<path d="M334.68,861.40l15.58,38.60l-9.45,0.00l-2.85-7.72l-14.69,0.00l-2.85,7.72l-9.45,0.00l15.58-38.60l8.14,0.00z  M334.96,884.56l-4.30-11.23l-0.09,0.00l-4.30,11.23l8.70,0.00z"/>
		<path d="M365.56,876.05l0.00,23.95l-8.80,0.00l0.00-38.60l8.80,0.00l15.35,23.95l0.09,0.00l0.00-23.95l8.80,0.00l0.00,38.60l-8.80,0.00l-15.35-23.95l-0.09,0.00z"/>
		<path d="M400.40,861.40l11.18,0.00c10.57,0.00,19.46,8.05,19.46,19.27c0.00,11.27-8.84,19.32-19.46,19.32l-11.18,0.00l0.00-38.60z  M409.20,892.14l1.36,0.00c6.50,0.00,10.95-4.96,10.99-11.42c0.00-6.46-4.44-11.46-10.99-11.46l-1.36,0.00l0.00,22.88z"/>
		<path d="M466.50,861.40l0.00,38.60l-8.80,0.00l0.00-38.60l8.80,0.00z"/>
		<path d="M490.40,860.70c7.02,0.00,11.98,3.65,11.98,3.65l-3.56,7.02s-3.84-2.67-7.81-2.67c-2.99,0.00-4.58,1.36-4.58,3.46c0.00,2.15,3.65,3.70,8.05,5.57c4.30,1.82,9.03,5.47,9.03,10.53c0.00,9.22-7.02,12.44-14.55,12.44c-9.03,0.00-14.50-5.10-14.50-5.10l4.40-7.39s5.15,4.35,9.45,4.35c1.92,0.00,5.57-0.19,5.57-3.79c0.00-2.81-4.12-4.07-8.70-6.36c-4.63-2.29-7.35-5.89-7.35-9.92c0.00-7.20,6.36-11.79,12.58-11.79z"/>
		<path d="M532.22,861.40l15.58,38.60l-9.45,0.00l-2.85-7.72l-14.69,0.00l-2.85,7.72l-9.45,0.00l15.58-38.60l8.14,0.00z  M532.50,884.56l-4.30-11.23l-0.09,0.00l-4.30,11.23l8.70,0.00z"/>
		<path d="M554.29,861.40l11.98,0.00c6.64,0.00,11.88,2.48,11.88,9.82c0.00,3.56-1.54,6.60-4.82,8.28c4.82,0.84,8.23,3.51,8.23,9.73c0.00,6.36-4.63,10.76-12.63,10.76l-14.64,0.00l0.00-38.60z  M563.09,876.51l0.70,0.00c3.79,0.00,5.85-1.17,5.85-4.40c0.00-2.76-2.01-3.93-5.85-3.93l-0.70,0.00l0.00,8.33z  M563.09,893.22l2.76,0.00c4.16,0.00,6.46-1.26,6.46-4.30c0.00-3.56-2.29-4.82-6.46-4.82l-2.76,0.00l0.00,9.12z"/>
		<path d="M612.53,861.40l0.00,7.72l-13.29,0.00l0.00,7.67l12.73,0.00l0.00,7.72l-12.73,0.00l0.00,7.77l13.29,0.00l0.00,7.72l-22.08,0.00l0.00-38.60l22.08,0.00z"/>
		<path d="M631.38,861.40l0.00,30.88l13.29,0.00l0.00,7.72l-22.08,0.00l0.00-38.60l8.80,0.00z"/>
		<path d="M662.81,861.40l0.00,30.88l13.29,0.00l0.00,7.72l-22.08,0.00l0.00-38.60l8.80,0.00z"/>
		<path d="M705.75,861.40l15.58,38.60l-9.45,0.00l-2.85-7.72l-14.69,0.00l-2.85,7.72l-9.45,0.00l15.58-38.60l8.14,0.00z  M706.04,884.56l-4.30-11.23l-0.09,0.00l-4.30,11.23l8.70,0.00z"/>
		<path d="M767.92,861.40l0.00,7.72l-13.52,0.00l0.00,7.67l12.49,0.00l0.00,7.72l-12.49,0.00l0.00,15.49l-8.80,0.00l0.00-38.60l22.32,0.00z"/>
		<path d="M768.71,861.40l10.57,0.00l8.05,12.35l8.05-12.35l10.57,0.00l-14.22,21.29l0.00,17.31l-8.80,0.00l0.00-17.31z"/>
		<path d="M824.42,900.00l-16.19-38.60l9.92,0.00l9.73,25.36l9.73-25.36l9.92,0.00l-16.19,38.60l-6.92,0.00z"/>
		<path d="M862.82,861.40l0.00,38.60l-8.80,0.00l0.00-38.60l8.80,0.00z"/>
		<path d="M895.52,861.40l0.00,7.72l-13.29,0.00l0.00,7.67l12.73,0.00l0.00,7.72l-12.73,0.00l0.00,7.77l13.29,0.00l0.00,7.72l-22.08,0.00l0.00-38.60l22.08,0.00z"/>
		<path d="M955.25,900.00l-1.82-22.88l-0.23,0.00l-7.91,22.64l-5.24,0.00l-7.91-22.64l-0.23,0.00l-1.82,22.88l-8.80,0.00l3.46-38.60l9.36,0.00l8.56,22.27l8.56-22.27l9.36,0.00l3.46,38.60l-8.80,0.00z"/>
		<path d="M992.20,861.40l15.58,38.60l-9.45,0.00l-2.85-7.72l-14.69,0.00l-2.85,7.72l-9.45,0.00l15.58-38.60l8.14,0.00z  M992.49,884.56l-4.30-11.23l-0.09,0.00l-4.30,11.23l8.70,0.00z"/>
		<path d="M1005.86,861.40l10.57,0.00l8.05,12.35l8.05-12.35l10.57,0.00l-14.22,21.29l0.00,17.31l-8.80,0.00l0.00-17.31z"/>
		<path d="M1047.77,880.68c0.00-11.27,8.84-19.98,19.46-19.98c10.71,0.00,19.42,8.70,19.42,19.98s-8.33,20.02-19.42,20.02c-11.42,0.00-19.46-8.75-19.46-20.02z  M1057.27,880.68c0.00,5.75,2.76,11.51,9.96,11.51c7.02,0.00,9.92-5.75,9.92-11.51s-3.09-11.51-9.92-11.51c-6.78,0.00-9.96,5.75-9.96,11.51z"/>
	</g>
</svg>
